<svg width="1120" height="323" viewBox="0 0 1120 323" fill="none" xmlns="http://www.w3.org/2000/svg">
<path d="M179.336 292.698C177.86 292.317 173.478 290.269 169.573 288.126C138.76 271.124 114.853 257.456 85.6115 240.169C79.1822 236.359 72.1338 232.168 69.8954 230.882C64.3234 227.596 62.9423 226.453 60.7516 223.5C57.6084 219.261 56.513 216.213 56.0368 210.546C55.5129 203.974 55.5129 152.778 55.9891 153.016C56.2273 153.111 64.0853 157.54 73.4196 162.922L90.4692 172.685L90.1358 188.639C89.9453 197.402 89.7548 204.784 89.7072 205.022C89.5643 206.117 110.995 217.976 149.666 238.216C169.097 248.36 178.574 253.075 180.384 253.456C183.622 254.17 190.29 253.741 193.433 252.646C195.719 251.884 234.295 231.787 248.249 224.119C254.011 220.976 264.822 214.785 274.299 209.165C275.537 208.451 275.537 208.355 275.871 201.498C276.49 186.924 276.918 181.876 277.585 181.257C277.966 180.924 283.729 176.971 290.396 172.447C297.064 167.922 305.493 162.16 309.113 159.731C312.732 157.255 315.78 155.302 315.875 155.397C315.97 155.492 315.875 169.494 315.732 186.496L315.399 217.452L314.018 219.833C311.494 224.119 307.446 227.596 299.207 232.406C247.534 262.838 198.767 290.412 193.719 292.127C190.242 293.317 182.908 293.603 179.336 292.698Z" fill="white"/>
<path d="M33.4626 230.072C32.4149 229.31 24.5092 223.881 15.8416 218.023L0.125566 207.355L0.0303176 177.638C-0.0649311 161.303 0.077942 142.396 0.268439 135.681L0.60181 123.441L4.17364 125.489C6.12623 126.585 14.1271 131.109 21.9375 135.49L36.0819 143.491V187.496C36.0819 211.689 35.9391 231.501 35.7486 231.501C35.5105 231.453 34.5103 230.834 33.4626 230.072Z" fill="white"/>
<path d="M346.831 205.832C344.64 205.261 342.688 204.118 341.021 202.356C338.021 199.26 338.021 199.07 338.021 179.258C338.021 159.113 338.021 159.113 341.545 155.827L343.259 154.16V135.634C343.259 119.204 343.164 117.156 342.545 117.68C341.926 118.156 341.83 118.108 341.83 117.156C341.83 116.203 342.735 115.489 347.736 112.822C353.165 109.822 356.118 108.869 356.118 110.06C356.118 110.345 355.927 110.536 355.642 110.536C355.308 110.536 355.165 118.108 355.165 132.253V153.969L357.308 156.351C358.451 157.636 359.642 159.494 359.928 160.446C360.547 162.732 360.547 195.926 359.928 198.212C359.309 200.355 356.499 203.689 354.26 204.784C352.213 205.832 348.784 206.308 346.831 205.832Z" fill="white"/>
<path d="M177.145 202.832C171.859 201.594 164.287 197.641 151.095 189.354C129.092 175.543 104.471 161.161 65.8474 139.492C32.558 120.775 2.79274 103.726 2.74512 103.297C2.74512 102.773 46.5595 77.1991 127.045 30.9082C169.287 6.61978 178.05 1.66685 180.717 0.809614C182.146 0.33337 184.67 0 186.813 0H190.48L211.768 12.0966C233.104 24.2884 292.444 58.4827 341.973 87.2002C356.546 95.6297 368.5 102.726 368.5 102.916C368.5 103.345 351.736 112.917 343.974 116.965C326.4 126.157 312.541 134.634 299.969 144.016C287.11 153.636 275.156 157.637 261.345 157.017C252.582 156.636 245.915 155.112 235.866 151.112C226.722 147.493 219.626 143.54 189.433 125.538C181.432 120.775 170.621 114.346 165.382 111.25C160.144 108.155 155.476 105.345 155 105.012C154.191 104.488 154.714 103.916 160.239 99.1063C170.097 90.4863 175.098 87.343 180.717 86.2477C186.67 85.0571 193.671 87.5335 208.292 95.963C212.959 98.63 221.96 103.821 228.246 107.441C252.678 121.49 259.059 123.871 267.203 121.728C272.537 120.347 277.014 117.68 288.872 108.679C298.159 101.678 297.73 102.011 297.492 101.773C297.206 101.535 247.582 72.77 228.246 61.6259C219.626 56.6253 207.387 49.5769 201.101 45.9575L189.671 39.3377H186.575C184.099 39.3377 182.86 39.6711 180.384 40.8141C175.24 43.2429 72.61 102.202 72.3719 102.821C72.3243 103.011 75.7532 105.202 79.9918 107.679C84.278 110.155 94.9458 116.346 103.709 121.537C133.283 138.873 155.238 151.731 187.766 170.781C205.577 181.163 220.341 189.878 220.531 190.069C220.912 190.402 204.529 199.832 201.101 201.26C194.481 203.975 184.575 204.642 177.145 202.832Z" fill="#EDAE5A"/>
<path d="M433.654 197V56.5419H466.16V197H433.654ZM509.527 197V56.5419H536.414L596.209 155.665H581.963L640.755 56.5419H667.442L667.843 197H637.344L637.143 103.294H642.761L595.808 182.152H581.16L533.204 103.294H540.026V197H509.527ZM741.098 113.126H808.718V138.409H741.098V113.126ZM743.505 170.915H819.955V197H711.2V56.5419H817.346V82.627H743.505V170.915ZM884.946 197V83.0283H840V56.5419H962.399V83.0283H917.452V197H884.946ZM1035.09 199.408C1023.86 199.408 1013.09 197.936 1002.79 194.993C992.487 191.917 984.193 187.971 977.906 183.155L988.942 158.675C994.961 162.956 1002.05 166.501 1010.21 169.31C1018.5 171.985 1026.87 173.323 1035.29 173.323C1041.71 173.323 1046.86 172.721 1050.74 171.517C1054.76 170.179 1057.7 168.373 1059.57 166.099C1061.44 163.825 1062.38 161.217 1062.38 158.274C1062.38 154.528 1060.91 151.585 1057.97 149.445C1055.02 147.171 1051.14 145.365 1046.33 144.027C1041.51 142.556 1036.16 141.218 1030.28 140.014C1024.52 138.676 1018.71 137.071 1012.82 135.198C1007.07 133.326 1001.78 130.918 996.968 127.975C992.152 125.032 988.206 121.153 985.129 116.337C982.186 111.521 980.715 105.368 980.715 97.8767C980.715 89.8505 982.855 82.5601 987.136 76.0054C991.55 69.3169 998.105 64.033 1006.8 60.1537C1015.63 56.1406 1026.66 54.1341 1039.91 54.1341C1048.74 54.1341 1057.43 55.2042 1065.99 57.3445C1074.55 59.3511 1082.11 62.4278 1088.67 66.5746L1078.63 91.2551C1072.08 87.5096 1065.52 84.7673 1058.97 83.0283C1052.42 81.1555 1045.99 80.2191 1039.71 80.2191C1033.42 80.2191 1028.27 80.9549 1024.26 82.4263C1020.24 83.8978 1017.37 85.8375 1015.63 88.2453C1013.89 90.5194 1013.02 93.1948 1013.02 96.2715C1013.02 99.8833 1014.49 102.826 1017.43 105.1C1020.38 107.241 1024.26 108.98 1029.07 110.317C1033.89 111.655 1039.17 112.993 1044.92 114.33C1050.81 115.668 1056.63 117.206 1062.38 118.945C1068.27 120.684 1073.62 123.025 1078.43 125.968C1083.25 128.911 1087.13 132.791 1090.07 137.606C1093.15 142.422 1094.69 148.509 1094.69 155.866C1094.69 163.758 1092.48 170.982 1088.07 177.537C1083.65 184.091 1077.03 189.375 1068.2 193.388C1059.51 197.401 1048.47 199.408 1035.09 199.408Z" fill="white"/>
<path d="M473.2 270.76C475.76 270.76 477.84 271.573 479.44 273.2C481.067 274.8 481.88 277.133 481.88 280.2V293H479.12V280.52C479.12 278.147 478.547 276.333 477.4 275.08C476.253 273.827 474.693 273.2 472.72 273.2C470.667 273.2 469.027 273.88 467.8 275.24C466.573 276.6 465.96 278.573 465.96 281.16V293H463.2V280.52C463.2 278.147 462.627 276.333 461.48 275.08C460.333 273.827 458.76 273.2 456.76 273.2C454.707 273.2 453.067 273.88 451.84 275.24C450.613 276.6 450 278.573 450 281.16V293H447.2V271.16H450V274.92C450.693 273.56 451.68 272.533 452.96 271.84C454.24 271.12 455.667 270.76 457.24 270.76C459.133 270.76 460.787 271.213 462.2 272.12C463.64 273.027 464.68 274.36 465.32 276.12C465.907 274.387 466.907 273.067 468.32 272.16C469.76 271.227 471.387 270.76 473.2 270.76ZM533.858 280.96C533.858 281.92 533.832 282.653 533.778 283.16H515.658C515.738 284.813 516.138 286.227 516.858 287.4C517.578 288.573 518.525 289.467 519.698 290.08C520.872 290.667 522.152 290.96 523.538 290.96C525.352 290.96 526.872 290.52 528.098 289.64C529.352 288.76 530.178 287.573 530.578 286.08H533.538C533.005 288.213 531.858 289.96 530.098 291.32C528.365 292.653 526.178 293.32 523.538 293.32C521.485 293.32 519.645 292.867 518.018 291.96C516.392 291.027 515.112 289.72 514.178 288.04C513.272 286.333 512.818 284.347 512.818 282.08C512.818 279.813 513.272 277.827 514.178 276.12C515.085 274.413 516.352 273.107 517.978 272.2C519.605 271.293 521.458 270.84 523.538 270.84C525.618 270.84 527.432 271.293 528.978 272.2C530.552 273.107 531.752 274.333 532.578 275.88C533.432 277.4 533.858 279.093 533.858 280.96ZM531.018 280.88C531.045 279.253 530.712 277.867 530.018 276.72C529.352 275.573 528.432 274.707 527.258 274.12C526.085 273.533 524.805 273.24 523.418 273.24C521.338 273.24 519.565 273.907 518.098 275.24C516.632 276.573 515.818 278.453 515.658 280.88H531.018ZM563.701 282.04C563.701 279.8 564.155 277.84 565.061 276.16C565.968 274.453 567.208 273.147 568.781 272.24C570.381 271.307 572.181 270.84 574.181 270.84C576.101 270.84 577.835 271.307 579.381 272.24C580.928 273.173 582.061 274.387 582.781 275.88V263.4H585.581V293H582.781V288.12C582.115 289.64 581.021 290.893 579.501 291.88C577.981 292.84 576.195 293.32 574.141 293.32C572.141 293.32 570.341 292.853 568.741 291.92C567.168 290.987 565.928 289.667 565.021 287.96C564.141 286.253 563.701 284.28 563.701 282.04ZM582.781 282.08C582.781 280.32 582.421 278.773 581.701 277.44C580.981 276.107 579.995 275.08 578.741 274.36C577.515 273.64 576.155 273.28 574.661 273.28C573.115 273.28 571.728 273.627 570.501 274.32C569.275 275.013 568.301 276.027 567.581 277.36C566.888 278.667 566.541 280.227 566.541 282.04C566.541 283.827 566.888 285.4 567.581 286.76C568.301 288.093 569.275 289.12 570.501 289.84C571.728 290.533 573.115 290.88 574.661 290.88C576.155 290.88 577.515 290.52 578.741 289.8C579.995 289.08 580.981 288.053 581.701 286.72C582.421 285.387 582.781 283.84 582.781 282.08ZM619.373 267.04C618.813 267.04 618.333 266.84 617.933 266.44C617.533 266.04 617.333 265.547 617.333 264.96C617.333 264.373 617.533 263.893 617.933 263.52C618.333 263.12 618.813 262.92 619.373 262.92C619.933 262.92 620.413 263.12 620.813 263.52C621.213 263.893 621.413 264.373 621.413 264.96C621.413 265.547 621.213 266.04 620.813 266.44C620.413 266.84 619.933 267.04 619.373 267.04ZM620.773 271.16V293H617.973V271.16H620.773ZM651.834 282.08C651.834 279.813 652.287 277.84 653.194 276.16C654.101 274.453 655.354 273.147 656.954 272.24C658.554 271.307 660.381 270.84 662.434 270.84C665.127 270.84 667.341 271.507 669.074 272.84C670.834 274.173 671.967 275.987 672.474 278.28H669.474C669.101 276.707 668.287 275.48 667.034 274.6C665.807 273.693 664.274 273.24 662.434 273.24C660.967 273.24 659.647 273.573 658.474 274.24C657.301 274.907 656.367 275.907 655.674 277.24C655.007 278.547 654.674 280.16 654.674 282.08C654.674 284 655.007 285.627 655.674 286.96C656.367 288.293 657.301 289.293 658.474 289.96C659.647 290.627 660.967 290.96 662.434 290.96C664.274 290.96 665.807 290.52 667.034 289.64C668.287 288.733 669.101 287.48 669.474 285.88H672.474C671.967 288.12 670.834 289.92 669.074 291.28C667.314 292.64 665.101 293.32 662.434 293.32C660.381 293.32 658.554 292.867 656.954 291.96C655.354 291.027 654.101 289.72 653.194 288.04C652.287 286.333 651.834 284.347 651.834 282.08ZM702.365 282.04C702.365 279.8 702.805 277.84 703.685 276.16C704.592 274.453 705.832 273.147 707.405 272.24C709.005 271.307 710.805 270.84 712.805 270.84C714.885 270.84 716.672 271.32 718.165 272.28C719.685 273.24 720.779 274.467 721.445 275.96V271.16H724.245V293H721.445V288.16C720.752 289.653 719.645 290.893 718.125 291.88C716.632 292.84 714.845 293.32 712.765 293.32C710.792 293.32 709.005 292.853 707.405 291.92C705.832 290.987 704.592 289.667 703.685 287.96C702.805 286.253 702.365 284.28 702.365 282.04ZM721.445 282.08C721.445 280.32 721.085 278.773 720.365 277.44C719.645 276.107 718.659 275.08 717.405 274.36C716.179 273.64 714.819 273.28 713.325 273.28C711.779 273.28 710.392 273.627 709.165 274.32C707.939 275.013 706.965 276.027 706.245 277.36C705.552 278.667 705.205 280.227 705.205 282.04C705.205 283.827 705.552 285.4 706.245 286.76C706.965 288.093 707.939 289.12 709.165 289.84C710.392 290.533 711.779 290.88 713.325 290.88C714.819 290.88 716.179 290.52 717.405 289.8C718.659 289.08 719.645 288.053 720.365 286.72C721.085 285.387 721.445 283.84 721.445 282.08ZM759.438 263.4V293H756.638V263.4H759.438ZM836.275 293.32C833.768 293.32 831.715 292.747 830.115 291.6C828.541 290.427 827.661 288.84 827.475 286.84H830.355C830.488 288.067 831.061 289.067 832.075 289.84C833.115 290.587 834.501 290.96 836.235 290.96C837.755 290.96 838.941 290.6 839.795 289.88C840.675 289.16 841.115 288.267 841.115 287.2C841.115 286.453 840.875 285.84 840.395 285.36C839.915 284.88 839.301 284.507 838.555 284.24C837.835 283.947 836.848 283.64 835.595 283.32C833.968 282.893 832.648 282.467 831.635 282.04C830.621 281.613 829.755 280.987 829.035 280.16C828.341 279.307 827.995 278.173 827.995 276.76C827.995 275.693 828.315 274.707 828.955 273.8C829.595 272.893 830.501 272.173 831.675 271.64C832.848 271.107 834.181 270.84 835.675 270.84C838.021 270.84 839.915 271.44 841.355 272.64C842.795 273.813 843.568 275.44 843.675 277.52H840.875C840.795 276.24 840.288 275.213 839.355 274.44C838.448 273.64 837.195 273.24 835.595 273.24C834.181 273.24 833.035 273.573 832.155 274.24C831.275 274.907 830.835 275.733 830.835 276.72C830.835 277.573 831.088 278.28 831.595 278.84C832.128 279.373 832.781 279.8 833.555 280.12C834.328 280.413 835.368 280.747 836.675 281.12C838.248 281.547 839.501 281.96 840.435 282.36C841.368 282.76 842.168 283.347 842.835 284.12C843.501 284.893 843.848 285.92 843.875 287.2C843.875 288.373 843.555 289.427 842.915 290.36C842.275 291.267 841.381 291.987 840.235 292.52C839.088 293.053 837.768 293.32 836.275 293.32ZM873.865 282.08C873.865 279.813 874.319 277.84 875.225 276.16C876.132 274.453 877.385 273.147 878.985 272.24C880.585 271.307 882.412 270.84 884.465 270.84C887.159 270.84 889.372 271.507 891.105 272.84C892.865 274.173 893.999 275.987 894.505 278.28H891.505C891.132 276.707 890.319 275.48 889.065 274.6C887.839 273.693 886.305 273.24 884.465 273.24C882.999 273.24 881.679 273.573 880.505 274.24C879.332 274.907 878.399 275.907 877.705 277.24C877.039 278.547 876.705 280.16 876.705 282.08C876.705 284 877.039 285.627 877.705 286.96C878.399 288.293 879.332 289.293 880.505 289.96C881.679 290.627 882.999 290.96 884.465 290.96C886.305 290.96 887.839 290.52 889.065 289.64C890.319 288.733 891.132 287.48 891.505 285.88H894.505C893.999 288.12 892.865 289.92 891.105 291.28C889.345 292.64 887.132 293.32 884.465 293.32C882.412 293.32 880.585 292.867 878.985 291.96C877.385 291.027 876.132 289.72 875.225 288.04C874.319 286.333 873.865 284.347 873.865 282.08ZM936.077 270.76C937.73 270.76 939.21 271.107 940.517 271.8C941.85 272.493 942.89 273.56 943.637 275C944.41 276.413 944.797 278.147 944.797 280.2V293H942.037V280.52C942.037 278.147 941.437 276.333 940.237 275.08C939.063 273.827 937.45 273.2 935.397 273.2C933.29 273.2 931.61 273.867 930.357 275.2C929.103 276.533 928.477 278.493 928.477 281.08V293H925.677V263.4H928.477V274.88C929.17 273.573 930.183 272.56 931.517 271.84C932.877 271.12 934.397 270.76 936.077 270.76ZM986.549 293.32C984.496 293.32 982.642 292.867 980.989 291.96C979.362 291.027 978.069 289.72 977.109 288.04C976.176 286.333 975.709 284.347 975.709 282.08C975.709 279.813 976.189 277.84 977.149 276.16C978.109 274.453 979.416 273.147 981.069 272.24C982.722 271.307 984.576 270.84 986.629 270.84C988.682 270.84 990.536 271.307 992.189 272.24C993.869 273.147 995.176 274.453 996.109 276.16C997.069 277.84 997.549 279.813 997.549 282.08C997.549 284.32 997.069 286.293 996.109 288C995.149 289.707 993.829 291.027 992.149 291.96C990.469 292.867 988.602 293.32 986.549 293.32ZM986.549 290.88C987.989 290.88 989.322 290.56 990.549 289.92C991.776 289.253 992.762 288.267 993.509 286.96C994.282 285.627 994.669 284 994.669 282.08C994.669 280.16 994.296 278.547 993.549 277.24C992.802 275.907 991.816 274.92 990.589 274.28C989.362 273.613 988.029 273.28 986.589 273.28C985.149 273.28 983.816 273.613 982.589 274.28C981.362 274.92 980.376 275.907 979.629 277.24C978.909 278.547 978.549 280.16 978.549 282.08C978.549 284 978.909 285.627 979.629 286.96C980.376 288.267 981.349 289.253 982.549 289.92C983.776 290.56 985.109 290.88 986.549 290.88ZM1038.21 293.32C1036.16 293.32 1034.31 292.867 1032.65 291.96C1031.03 291.027 1029.73 289.72 1028.77 288.04C1027.84 286.333 1027.37 284.347 1027.37 282.08C1027.37 279.813 1027.85 277.84 1028.81 276.16C1029.77 274.453 1031.08 273.147 1032.73 272.24C1034.39 271.307 1036.24 270.84 1038.29 270.84C1040.35 270.84 1042.2 271.307 1043.85 272.24C1045.53 273.147 1046.84 274.453 1047.77 276.16C1048.73 277.84 1049.21 279.813 1049.21 282.08C1049.21 284.32 1048.73 286.293 1047.77 288C1046.81 289.707 1045.49 291.027 1043.81 291.96C1042.13 292.867 1040.27 293.32 1038.21 293.32ZM1038.21 290.88C1039.65 290.88 1040.99 290.56 1042.21 289.92C1043.44 289.253 1044.43 288.267 1045.17 286.96C1045.95 285.627 1046.33 284 1046.33 282.08C1046.33 280.16 1045.96 278.547 1045.21 277.24C1044.47 275.907 1043.48 274.92 1042.25 274.28C1041.03 273.613 1039.69 273.28 1038.25 273.28C1036.81 273.28 1035.48 273.613 1034.25 274.28C1033.03 274.92 1032.04 275.907 1031.29 277.24C1030.57 278.547 1030.21 280.16 1030.21 282.08C1030.21 284 1030.57 285.627 1031.29 286.96C1032.04 288.267 1033.01 289.253 1034.21 289.92C1035.44 290.56 1036.77 290.88 1038.21 290.88ZM1083.12 263.4V293H1080.32V263.4H1083.12Z" fill="white"/>
</svg>
